<?xml version="1.0" encoding="UTF-8" standalone="no"?>
<!-- Created with Inkscape (http://www.inkscape.org/) -->

<svg
   width="210mm"
   height="297mm"
   viewBox="0 0 210 297"
   version="1.1"
   id="svg62"
   inkscape:version="1.1.2 (0a00cf5339, 2022-02-04)"
   sodipodi:docname="logo.svg"
   inkscape:export-filename="/home/gabriel/dev/CW_docs/static/img/logo.png"
   inkscape:export-xdpi="872.72485"
   inkscape:export-ydpi="872.72485"
   xmlns:inkscape="http://www.inkscape.org/namespaces/inkscape"
   xmlns:sodipodi="http://sodipodi.sourceforge.net/DTD/sodipodi-0.dtd"
   xmlns="http://www.w3.org/2000/svg"
   xmlns:svg="http://www.w3.org/2000/svg">
  <sodipodi:namedview
     id="namedview64"
     pagecolor="#ffffff"
     bordercolor="#666666"
     borderopacity="1.0"
     inkscape:pageshadow="2"
     inkscape:pageopacity="0.0"
     inkscape:pagecheckerboard="0"
     inkscape:document-units="mm"
     showgrid="false"
     inkscape:zoom="6.1932099"
     inkscape:cx="209.4229"
     inkscape:cy="532.84162"
     inkscape:window-width="1920"
     inkscape:window-height="1048"
     inkscape:window-x="0"
     inkscape:window-y="1"
     inkscape:window-maximized="1"
     inkscape:current-layer="layer1" />
  <defs
     id="defs59" />
  <g
     inkscape:label="Capa 1"
     inkscape:groupmode="layer"
     id="layer1">
    <path
       d="m 63.37107,126.68726 -0.330729,-0.72761 -0.727604,-0.33073 0.727604,-0.33073 0.330729,-0.7276 0.33073,0.7276 0.727604,0.33073 -0.727604,0.33073 z m 0,3.70417 -0.330729,-0.7276 -0.727604,-0.33073 0.727604,-0.33073 0.330729,-0.7276 0.33073,0.7276 0.727604,0.33073 -0.727604,0.33073 z m -2.645833,-0.79375 -0.661458,-1.4552 -1.455209,-0.66146 1.455209,-0.66147 0.661458,-1.45521 0.661458,1.45521 1.455209,0.66147 -1.455209,0.66146 z m 0,-1.28323 0.264583,-0.56885 0.568855,-0.26458 -0.568855,-0.26459 -0.264583,-0.56886 -0.264583,0.56886 -0.568854,0.26459 0.568854,0.26458 z"
       fill="#ffffff"
       id="path4"
       style="stroke-width:0.264583;fill:#ffcc00" />
  </g>
</svg>
